<svg xmlns="http://www.w3.org/2000/svg" width="29" height="28" fill="none"><path stroke="#270B36" stroke-linecap="round" stroke-linejoin="round" stroke-width="1.7" d="M22.083 9.333V3.5m-15.166 21v-5.833m12.25-12.25H25M4 21.583h5.833" opacity=".4"/><path stroke="#270B36" stroke-linecap="round" stroke-linejoin="round" stroke-width="1.7" d="M8.083 2.333 9 4.163c.31.62.464.93.671 1.198.184.238.397.452.635.636.269.206.579.361 1.198.671l1.83.915-1.83.915c-.62.31-.93.465-1.198.672a3.502 3.502 0 0 0-.635.635c-.207.269-.362.578-.671 1.198l-.916 1.83-.915-1.83c-.31-.62-.464-.93-.671-1.198a3.5 3.5 0 0 0-.636-.635c-.268-.207-.578-.362-1.197-.672l-1.83-.915 1.83-.915c.62-.31.929-.465 1.197-.671a3.5 3.5 0 0 0 .636-.636c.207-.268.361-.578.671-1.197l.915-1.83ZM20.333 14l1.11 2.22c.31.619.465.928.671 1.197a3.5 3.5 0 0 0 .636.635c.268.207.578.362 1.197.672l2.22 1.11-2.22 1.109c-.62.31-.929.464-1.197.671a3.5 3.5 0 0 0-.636.636c-.206.268-.361.578-.671 1.197l-1.11 2.22-1.11-2.22c-.309-.62-.464-.929-.67-1.197a3.5 3.5 0 0 0-.636-.636c-.269-.207-.578-.361-1.198-.671l-2.219-1.11 2.22-1.11c.619-.31.928-.464 1.197-.67a3.5 3.5 0 0 0 .635-.636c.207-.269.362-.578.672-1.198l1.11-2.22Z"/></svg>